#!OML:ASF F:\VICON\USERDATA\INSTALL\rory3\rory3.ASF
:FULLY-SPECIFIED
:DEGREES
27
root 0.9439963205919231 18.05470338445873 -2.7764641264383982 -3.4506627071332714 -2.7693901997393655 1.8110351713606647
lfemur -3.6642948455964612 -2.563610640362362 -26.526760220411408
ltibia 27.729714845948273
lfoot -13.24035153846243 2.9078091744430274
ltoes -0.015205420848000806
rfemur -25.27106412703499 0.7580235909808346 20.708672401931533
rtibia 67.82168130168243
rfoot -5.864567024846435 -5.079923021740539
rtoes 5.728230303807948
lowerback 10.746201304444286 0.6035545125927572 -1.8982138939292719
upperback 0.49315266504722655 0.5843661130797241 0.5347630160829602
thorax -5.371432988522454 0.3467366861347856 1.7052614774710797
lowerneck -16.144985744478785 -2.7168566605548023 -1.6311361687407973
upperneck 22.056982226537 -3.3887673186607326 0.24280763868241773
head 9.725630939724873 -1.6999019405735996 -0.052121517201452416
lclavicle -1.2344481742790337e-15 1.5666568340231483e-15
lhumerus -30.530713441212875 0.5296989463881029 83.01477583857233
lradius 24.376485109243045
lwrist 4.179806048418886
lhand -26.455314494526508 24.013315004913576
lfingers 7.12502
lthumb 0.10604718398200486 53.9944697559589
rclavicle -1.2344481742790337e-15 1.5666568340231487e-15
rhumerus -28.355849877366463 -17.642570742682494 -79.73683123258633
rradius 24.81751640038281
rwrist 5.457167083967322
rhand -16.676264062485014 22.26077650486171
rfingers 7.12502
rthumb 9.547649922839101 -7.500131059208021
28
root 0.917327581589892 18.034447621394754 -1.2257850703258963 -3.138997933353166 -2.169260281427703 2.496766230703886
lfemur -0.521397189761589 -2.3570315729690723 -27.16781301537838
ltibia 27.26270610860558
lfoot -14.11345960525663 3.8657217880728085
ltoes 0.7397142277050643
rfemur -27.661109362579783 0.8168240450776372 20.460595538533703
rtibia 62.26965773973179
rfoot -7.408129654197951 -5.659246369776675
rtoes 2.648593674323739
lowerback 10.705392622896994 0.30726304800880044 -2.4423208520735153
upperback 0.5070910592925126 0.12067289599795106 0.6153962825784169
thorax -5.310976448210693 0.13184610221565862 2.281785100479305
lowerneck -16.230480709681576 -2.7151512587735707 -1.757774082335847
upperneck 22.009124385322963 -3.369885645031241 0.3246554630321118
head 9.72217270654333 -1.694143229753302 0.00048290065136610827
lclavicle -5.087596673868557e-16 2.2345627556745318e-15
lhumerus -28.71229026458205 -1.206213508570255 83.13501728348925
lradius 26.239850339694723
lwrist 5.042963657114185
lhand -26.736006442645255 24.278874030288197
lfingers 7.12502
lthumb -0.16506337010920702 54.25794122472081
rclavicle -5.087596673868557e-16 2.2345627556745318e-15
rhumerus -28.734615466246424 -16.94140834182205 -79.65805225087314
rradius 25.148027184300638
rwrist 5.055947457220018
rhand -16.557274139315595 22.46401468066973
rfingers 7.12502
rthumb 9.662455028947592 -7.294570783928641
29
root 0.8599483889949359 17.989466622466548 -2.610388582454938 -2.764386258908869 -1.883220286939708 2.6839101888515997
lfemur 1.0438586551843851 -2.3663299724708535 -28.284092395608305
ltibia 23.155217025649932
lfoot -15.075970312595178 3.3805770572932348
ltoes 0.9237068301954738
rfemur -30.204131118456075 1.3407218528205571 19.191508902007417
rtibia 51.93112537292659
rfoot -7.952689786606477 -7.86300765700837
rtoes -0.6109583969080599
lowerback 10.469914986006794 -0.10659854067255348 -3.31040735647447
upperback 0.4580911497721367 -0.513399669065963 0.5975180161797164
thorax -5.242284945862635 -0.16425406081461558 2.5123364758225404
lowerneck -16.41080977857231 -2.753121307934308 -1.9351250469560806
upperneck 21.89686145862572 -3.4103433484207897 0.2755236106841249
head 9.703385881071688 -1.71328513235744 0.004437326907449135
lclavicle -1.7215452673410958e-15 1.1183118172380559e-15
lhumerus -27.584154488480014 -3.071256514363709 82.98281464703872
lradius 27.57137958905938
lwrist 5.7073689051650796
lhand -26.590573954287912 25.38063923446898
lfingers 7.12502
lthumb -0.02461904661419101 55.358207813423604
rclavicle -1.7215452673410958e-15 1.1183118172380557e-15
rhumerus -29.326394480739545 -17.134512475796374 -79.82157104595889
rradius 25.076349235376043
rwrist 4.3926663943505435
rhand -16.71219518194555 22.55183947445668
rfingers 7.12502
rthumb 9.51295222633157 -7.209352776741708
30
root 0.838541452286949 17.958024329688254 -1.3565699717892183 -2.2316065635132634 -1.296266209333359 3.1427281246371215
lfemur 4.616285360424497 -2.2018230298901114 -28.631729604167287
ltibia 19.689025774508377
lfoot -15.40208308266375 3.062359255167416
ltoes 0.24298742977913124
rfemur -30.83629536996093 2.476486305284217 18.206684565302268
rtibia 41.52020463769181
rfoot -6.8476245365653385 -10.137954129755425
rtoes -2.3131995837202584
lowerback 10.126998736258047 -0.38408386518979987 -3.961397389498045
upperback 0.39095488470753764 -0.9516819316499068 0.6619673367039711
thorax -5.08733794207969 -0.3671653690925485 3.00115050316997
lowerneck -16.556655026014614 -2.7598587972512054 -1.9926429214975887
upperneck 21.78247689928303 -3.4137859620125264 0.32651243924304435
head 9.690138088853526 -1.7137034929072859 0.03760213941575208
lclavicle -1.5607222544734194e-15 1.267638037404697e-15
lhumerus -25.916521674989596 -4.165708203592812 82.69949110388656
lradius 28.890702951336948
lwrist 6.670433556448904
lhand -26.65671912463211 26.497816715551938
lfingers 7.12502
lthumb -0.08854738373793447 56.471723761331624
rclavicle -1.5607222544734194e-15 1.267638037404697e-15
rhumerus -29.779629840723715 -17.433981723440954 -79.49284170552859
rradius 24.833642948050425
rwrist 4.610597000118681
rhand -16.653998710601 22.701275867407013
rfingers 7.12502
rthumb 9.56911545248596 -7.0579502761757125
31
root 0.7977950525496582 17.929102847309657 -0.08164194619465626 -1.648615737525449 -0.5399036370962127 3.519453524923478
lfemur 8.280493303596728 -2.00477524761363 -28.67869853329183
ltibia 15.853946494653162
lfoot -14.830716376327238 2.1231082162200394
ltoes 0.02871531685618489
rfemur -30.156569564726798 4.561634591640672 16.73026244026716
rtibia 29.76142798071673
rfoot -5.89594544090087 -13.210521818903985
rtoes -3.310859640078744
lowerback 9.73004287440744 -0.6575299464958323 -4.49982133681982
upperback 0.31728968156420756 -1.3591794379435616 0.7313142353234566
thorax -4.907131000835052 -0.560094549838916 3.4367248810470503
lowerneck -16.657413646226146 -2.760154496403583 -1.9925468781485944
upperneck 21.66174443100257 -3.4175993373511098 0.36827629670448775
head 9.67089186459787 -1.7118969144207254 0.058059920700646236
lclavicle -1.4192160789381401e-15 1.398375206239851e-15
lhumerus -24.1748806247817 -4.9013156668054885 82.48497081395519
lradius 30.098271322346676
lwrist 7.412169996489867
lhand -26.726677728525704 27.611601983110408
lfingers 7.12502
lthumb -0.15612835518728307 57.58211820710781
rclavicle -1.4192160789381401e-15 1.398375206239851e-15
rhumerus -30.223452878554756 -18.41798261222432 -78.90950507884628
rradius 24.331708457521927
rwrist 5.324724090555801
rhand -16.82146466119527 23.04877813718231
rfingers 7.12502
rthumb 9.407506287779892 -6.716925713010626
32
root 0.7271659215807117 17.880824757834038 1.901468590939304 -1.2037642084841327 0.2109457064897824 3.8585246307889682
lfemur 11.629908850855259 -2.0564800018167952 -28.781446188182443
ltibia 12.955858553095045
lfoot -14.902039150097067 1.3108270687656274
ltoes -1.8306926220789843
rfemur -29.432013852839816 6.169293992825086 15.303263421985244
rtibia 21.119603141023937
rfoot -5.713127539164265 -15.202446552871583
rtoes -4.588061087661378
lowerback 9.40017207363097 -0.8936879560706591 -4.947533791175206
upperback 0.24822862248053904 -1.7057117792837064 0.7851144052351602
thorax -4.7585086644585655 -0.7257099588048928 3.7739338513137843
lowerneck -16.71627796827797 -2.7670497725267373 -2.016289625609284
upperneck 21.555101111964575 -3.4322297950430656 0.4471966754659418
head 9.648255535720686 -1.7143691925599445 0.08380284008548067
lclavicle -1.3717219125610052e-15 1.4425841021138651e-15
lhumerus -22.8240459390162 -5.250663689185556 82.26701417928895
lradius 31.1508881419901
lwrist 7.868527911556898
lhand -27.045983814456093 27.63428574744929
lfingers 7.12502
lthumb -0.46451386609595297 57.602135903297956
rclavicle -1.3717219125610052e-15 1.4425841021138651e-15
rhumerus -30.72232590744259 -19.89969195020353 -78.21095119165827
rradius 23.5853660235
rwrist 6.508333676787084
rhand -17.061504669791432 22.79290514481618
rfingers 7.12502
rthumb 9.175874702066599 -6.983091730540764
33
root 0.6552693855234846 17.8164860503315 3.177594829380153 -0.9789511906542379 0.8858183347009922 3.9922900303174287
lfemur 14.390240897842915 -2.457586312484932 -28.65862891646492
ltibia 11.698549364894898
lfoot -14.774712776602794 0.37873177169016636
ltoes -4.570945641691383
rfemur -28.75692674500412 7.017952275591194 14.786940058411984
rtibia 16.73548665596055
rfoot -6.08844132066027 -15.004638558344098
rtoes -5.5811178367707726
lowerback 9.258343685435692 -1.0675642140531632 -5.205488249228957
upperback 0.22842186969701953 -1.9533522470263862 0.8712104206497162
thorax -4.663499828840875 -0.8447965485733806 4.047881493374083
lowerneck -16.784748252585132 -2.777098675122953 -2.038930916022978
upperneck 21.478874036948692 -3.4499354700333815 0.49142502988012937
head 9.636800260882517 -1.718391234438129 0.08870122726557106
lclavicle -1.3119785237480067e-15 1.4976630108926997e-15
lhumerus -21.861946224199272 -5.271400596392502 82.12047472111269
lradius 31.83076924170112
lwrist 8.192597858216375
lhand -27.436455954160188 27.120883657543224
lfingers 7.12502
lthumb -0.8415893429031068 57.08885603686083
rclavicle -1.3119785237480067e-15 1.4976630108926997e-15
rhumerus -31.257513549959302 -21.626739136932773 -77.30083923062044
rradius 22.742623452142162
rwrist 7.893724071070107
rhand -17.40316875374154 22.26064876244473
rfingers 7.12502
rthumb 8.846170823694278 -7.529826264326284
